<svg xmlns="http://www.w3.org/2000/svg" version="1.0" width="256.000000pt" height="256.000000pt" viewBox="0 0 256.000000 256.000000" preserveAspectRatio="xMidYMid meet">

<g transform="translate(0.000000,256.000000) scale(0.100000,-0.100000)" fill="#aa5ed9" stroke="none">
<path d="M825 2065 c-151 -28 -272 -88 -385 -192 -130 -120 -156 -280 -69 -417 l28 -46 -24 -37 c-73 -107 -70 -245 8 -363 16 -25 16 -27 -7 -61 -110 -162 -46 -383 134 -468 44 -20 70 -25 130 -25 88 0 140 20 220 83 44 35 59 41 100 41 44 0 54 -5 136 -72 96 -77 210 -137 314 -165 89 -24 291 -24 380 0 136 37 298 133 374 224 89 106 98 267 21 381 l-23 34 35 64 c58 107 54 230 -12 327 l-24 37 28 46 c134 210 -20 487 -269 487 -75 0 -146 -25 -203 -72 -95 -78 -146 -76 -247 13 -181 157 -417 224 -645 181z m280 -220 c81 -21 165 -69 238 -133 91 -82 152 -107 257 -107 97 0 162 24 238 88 52 44 103 49 145 17 67 -53 53 -131 -35 -201 -101 -80 -214 -119 -348 -119 -147 0 -266 46 -380 146 -86 76 -155 107 -245 112 -83 4 -160 -20 -229 -73 -65 -49 -84 -58 -121 -51 -48 9 -85 57 -85 109 0 36 6 46 48 86 55 53 146 105 223 125 72 20 220 20 294 1z m-33 -420 c97 -20 181 -64 277 -144 98 -83 154 -105 256 -104 88 0 143 21 218 80 73 57 121 62 167 18 60 -58 46 -125 -41 -192 -127 -98 -277 -138 -431 -115 -108 16 -201 60 -303 145 -97 81 -158 107 -255 107 -85 0 -152 -23 -224 -79 -68 -53 -122 -57 -167 -12 -60 60 -31 137 78 213 122 83 280 114 425 83z m17 -430 c86 -21 182 -73 265 -145 85 -73 150 -100 246 -100 84 0 160 26 216 74 71 60 102 68 155 40 36 -18 63 -75 54 -113 -14 -56 -135 -150 -238 -185 -86 -29 -180 -39 -258 -27 -133 21 -211 60 -343 171 -69 58 -137 84 -221 85 -85 0 -147 -21 -223 -77 -69 -50 -103 -58 -145 -37 -38 20 -57 51 -57 98 0 40 5 49 45 87 56 52 164 109 241 128 78 19 184 19 263 1z" fill="#aa5ed9"/>
</g>
</svg>